HIERARCHY
ROOT hip
{
  OFFSET 0 0 0
  CHANNELS 6 Xposition Yposition Zposition Zrotation Yrotation Xrotation
  JOINT abdomen
  {
    OFFSET 0 20.6881 -0.73152
    CHANNELS 3 Zrotation Xrotation Yrotation
    JOINT chest
    {
      OFFSET 0 11.7043 -0.48768
      CHANNELS 3 Zrotation Xrotation Yrotation
      JOINT neck
      {
        OFFSET 0 22.1894 -2.19456
        CHANNELS 3 Zrotation Xrotation Yrotation
        JOINT head
        {
          OFFSET -0.24384 7.07133 1.2192
          CHANNELS 3 Zrotation Xrotation Yrotation
          JOINT leftEye
          {
            OFFSET 4.14528 8.04674 8.04672
            CHANNELS 3 Zrotation Xrotation Yrotation
            End Site
            {
              OFFSET 1 0 0
            }
          }
          JOINT rightEye
          {
            OFFSET -3.6576 8.04674 8.04672
            CHANNELS 3 Zrotation Xrotation Yrotation
            End Site
            {
              OFFSET 1 0 0
            }
          }
        }
      }
      JOINT rCollar
      {
        OFFSET -2.68224 19.2634 -4.8768
        CHANNELS 3 Zrotation Xrotation Yrotation
        JOINT rShldr
        {
          OFFSET -8.77824 -1.95073 1.46304
          CHANNELS 3 Zrotation Xrotation Yrotation
          JOINT rForeArm
          {
            OFFSET -28.1742 -1.7115 0.48768
            CHANNELS 3 Zrotation Xrotation Yrotation
            JOINT rHand
            {
              OFFSET -22.5879 0.773209 7.07136
              CHANNELS 3 Zrotation Xrotation Yrotation
              JOINT rThumb1
              {
                OFFSET -1.2192 -0.487915 3.41376
                CHANNELS 3 Zrotation Xrotation Yrotation
                JOINT rThumb2
                {
                  OFFSET -3.37035 -0.52449 3.41376
                  CHANNELS 3 Zrotation Xrotation Yrotation
                  End Site
                  {
                    OFFSET -1.78271 -1.18214 1.43049
                  }
                }
              }
              JOINT rIndex1
              {
                OFFSET -7.75947 0.938293 5.60832
                CHANNELS 3 Zrotation Xrotation Yrotation
                JOINT rIndex2
                {
                  OFFSET -2.54057 -0.884171 1.56538
                  CHANNELS 3 Zrotation Xrotation Yrotation
                  End Site
                  {
                    OFFSET -1.62519 -0.234802 1.16502
                  }
                }
              }
              JOINT rMid1
              {
                OFFSET -8.24714 1.18213 3.41376
                CHANNELS 3 Zrotation Xrotation Yrotation
                JOINT rMid2
                {
                  OFFSET -3.10165 -0.590103 1.0647
                  CHANNELS 3 Zrotation Xrotation Yrotation
                  End Site
                  {
                    OFFSET -2.48547 -0.328903 0.83742
                  }
                }
              }
              JOINT rRing1
              {
                OFFSET -8.82822 0.546677 1.51678
                CHANNELS 3 Zrotation Xrotation Yrotation
                JOINT rRing2
                {
                  OFFSET -2.60934 -0.819778 -0.0198488
                  CHANNELS 3 Zrotation Xrotation Yrotation
                  End Site
                  {
                    OFFSET -2.33842 -0.294052 0.168128
                  }
                }
              }
              JOINT rPinky1
              {
                OFFSET -8.27202 -0.0477905 -0.4584
                CHANNELS 3 Zrotation Xrotation Yrotation
                JOINT rPinky2
                {
                  OFFSET -1.82734 -0.647385 -0.700984
                  CHANNELS 3 Zrotation Xrotation Yrotation
                  End Site
                  {
                    OFFSET -1.69225 -0.51767 -0.607171
                  }
                }
              }
            }
          }
        }
      }
      JOINT lCollar
      {
        OFFSET 2.68224 19.2634 -4.8768
        CHANNELS 3 Zrotation Xrotation Yrotation
        JOINT lShldr
        {
          OFFSET 8.77824 -1.95073 1.46304
          CHANNELS 3 Zrotation Xrotation Yrotation
          JOINT lForeArm
          {
            OFFSET 28.1742 -1.7115 0.48768
            CHANNELS 3 Zrotation Xrotation Yrotation
            JOINT lHand
            {
              OFFSET 22.5879 0.773209 7.07136
              CHANNELS 3 Zrotation Xrotation Yrotation
              JOINT lThumb1
              {
                OFFSET 1.2192 -0.487915 3.41376
                CHANNELS 3 Zrotation Xrotation Yrotation
                JOINT lThumb2
                {
                  OFFSET 3.37035 -0.52449 3.41376
                  CHANNELS 3 Zrotation Xrotation Yrotation
                  End Site
                  {
                    OFFSET 1.78271 -1.18214 1.43049
                  }
                }
              }
              JOINT lIndex1
              {
                OFFSET 7.75947 0.938293 5.60832
                CHANNELS 3 Zrotation Xrotation Yrotation
                JOINT lIndex2
                {
                  OFFSET 2.54057 -0.884171 1.56538
                  CHANNELS 3 Zrotation Xrotation Yrotation
                  End Site
                  {
                    OFFSET 1.62519 -0.234802 1.16502
                  }
                }
              }
              JOINT lMid1
              {
                OFFSET 8.24714 1.18213 3.41376
                CHANNELS 3 Zrotation Xrotation Yrotation
                JOINT lMid2
                {
                  OFFSET 3.10165 -0.590103 1.0647
                  CHANNELS 3 Zrotation Xrotation Yrotation
                  End Site
                  {
                    OFFSET 2.48547 -0.328903 0.83742
                  }
                }
              }
              JOINT lRing1
              {
                OFFSET 8.82822 0.546677 1.51678
                CHANNELS 3 Zrotation Xrotation Yrotation
                JOINT lRing2
                {
                  OFFSET 2.60934 -0.819778 -0.0198488
                  CHANNELS 3 Zrotation Xrotation Yrotation
                  End Site
                  {
                    OFFSET 2.33842 -0.294052 0.168128
                  }
                }
              }
              JOINT lPinky1
              {
                OFFSET 8.27202 -0.0477905 -0.4584
                CHANNELS 3 Zrotation Xrotation Yrotation
                JOINT lPinky2
                {
                  OFFSET 1.82734 -0.647385 -0.700984
                  CHANNELS 3 Zrotation Xrotation Yrotation
                  End Site
                  {
                    OFFSET 1.69225 -0.51767 -0.607171
                  }
                }
              }
            }
          }
        }
      }
    }
  }
  JOINT rButtock
  {
    OFFSET -8.77824 4.35084 1.2192
    CHANNELS 3 Zrotation Xrotation Yrotation
    JOINT rThigh
    {
      OFFSET 0 -1.70687 -2.19456
      CHANNELS 3 Zrotation Xrotation Yrotation
      JOINT rShin
      {
        OFFSET 0 -36.8199 0.73152
        CHANNELS 3 Zrotation Xrotation Yrotation
        JOINT rFoot
        {
          OFFSET 0.73152 -45.1104 -5.12064
          CHANNELS 3 Zrotation Xrotation Yrotation
          End Site
          {
            OFFSET -1.1221 -3.69964 12.103
          }
        }
      }
    }
  }
  JOINT lButtock
  {
    OFFSET 8.77824 4.35084 1.2192
    CHANNELS 3 Zrotation Xrotation Yrotation
    JOINT lThigh
    {
      OFFSET 0 -1.70687 -2.19456
      CHANNELS 3 Zrotation Xrotation Yrotation
      JOINT lShin
      {
        OFFSET 0 -36.8199 0.73152
        CHANNELS 3 Zrotation Xrotation Yrotation
        JOINT lFoot
        {
          OFFSET -0.73152 -45.1104 -5.12064
          CHANNELS 3 Zrotation Xrotation Yrotation
          End Site
          {
            OFFSET 1.1221 -3.69964 12.103
          }
        }
      }
    }
  }
}
MOTION
Frames:	4
Frame Time:	0.03333
18.471799999999998 92.63719999999999 78.7269 -98.167624 37.476269 -97.240956 4.491113 34.064438 151.497018 -15.263302 0.779132 -160.965604 -0.164835 20.943958 81.007676 -20.004829 -21.860328 -110.424925 -27.418082 12.770655 -49.286884 -21.202868 3.836675 -20.291147 -11.338749 23.654187 14.465346 60.620057 30.481933 11.659912 -17.027661 -81.478748 24.567147 -7.717161 9.99847 -1.176813 -88.977117 44.814871 45.419343 -30.240924 -11.45128 19.075815 -19.390855 1.565441 6.119878 -174.259139 -53.303889 109.147043 145.283461 -68.862724 128.89312 -13.356063 18.27976 -30.415346 -42.819147 -81.940268 -71.220309 -131.528866 32.355948 117.790564 -20.92115 -37.193964 -33.045237 -65.398493 66.830044 104.822227 -13.119646 -35.540512 -0.619 -76.843032 6.160634 -26.974967 160.481143 -65.100222 -59.068293 175.561241 -10.229674 -148.387343 15.005787 19.253192 -7.648321 115.420263 16.90042 -106.580846 48.426169 44.619564 -28.548191 147.863964 18.361901 -66.005685 53.120076 41.188128 -39.594175 8.856415 58.625109 -44.222183 -10.431705 25.205635 0.7797 13.654054 44.115808 -5.914434 10.800575 0.498685 -2.272339 54.209334 -58.484373 82.547449 1.25299 -8.458519 8.457716 -88.192505 -28.521453 2.037023 76.977804 31.519205 -60.413133 5.493987 -7.716477 -16.775124 144.358244 72.882813 28.549836 -108.233107 27.195068 51.835446 26.095565 -5.30318 98.404885 -111.985308 7.100858 163.762283
18.9451 90.5261 78.9106 -99.174342 39.320105 -100.092193 5.442211 39.077899 167.658161 -12.65027 7.382168 -177.665991 -14.263635 18.923889 -21.149349 37.89322 -6.591341 -2.764078 -120.437653 8.575607 14.928279 5.168095 -1.49998 -32.350467 -3.780413 13.772488 8.302187 -110.142399 -14.243692 -179.457786 -153.259429 47.644222 -149.883142 -6.029165 -6.541536 -2.51287 -2.448599 -7.056004 -6.590044 74.996069 -64.551349 12.866775 -151.634461 -11.836304 112.908211 -154.353849 -9.046622 109.261822 -90.414914 58.198852 69.534036 16.016687 4.715689 30.182075 14.125709 -2.032272 7.979651 168.621293 -0.771402 -176.941989 -96.958805 -42.631685 -97.797021 -61.44934 -44.369189 -84.695593 -4.828905 -13.86081 -5.368822 67.025756 19.09587 -127.071427 -76.060719 80.214288 -147.702292 171.958518 7.8946 -144.000316 169.648632 -13.191075 -89.696938 135.647482 -14.849552 -76.44685 144.140153 25.647494 -116.687799 -178.775667 69.869871 -110.704377 96.611614 49.001949 -82.951951 -102.171154 -71.938424 -43.884858 132.57927 -5.588758 164.808148 66.327429 -62.892284 106.412811 19.069925 -44.639706 8.779691 -51.623397 50.495799 28.641227 -162.510516 76.630592 -17.9458 112.81553 -27.235955 -180.0 175.921653 -65.364922 27.727925 165.063146 -30.057779 22.968056 -1.103225 -2.322765 1.372876 50.308011 -18.944401 74.919621 20.950567 11.73558 -117.770987 5.193687 -61.138904 97.604352
19.4613 88.19590000000001 78.8635 -100.067395 43.51894 -104.314581 8.278202 49.262738 4.425047 6.33458 -15.201171 -14.425399 6.446008 36.336025 137.584834 -41.023492 22.243327 -162.275921 -149.790489 20.674097 68.099859 23.537897 -2.36367 -11.309705 1.828979 -0.111634 -1.283795 -114.731405 -6.528636 -169.03156 -21.688632 -44.329912 -106.450201 177.765876 -31.831266 145.202117 178.113889 -3.538881 97.039785 -25.041959 -48.773013 -13.490638 -141.147025 -1.201132 103.277549 -165.425763 -18.496718 103.339617 -40.593844 54.575471 29.12028 151.492265 -58.860673 102.025015 -60.969649 -73.119063 -95.347873 -80.31013 50.895271 93.102909 8.595251 23.817405 4.84246 -107.40161 -88.03366 -117.250153 177.076676 -48.838598 -152.567737 -29.052735 0.263134 62.675565 -22.192358 -53.018234 129.530681 172.529965 5.899954 -142.95301 -80.318591 -48.406194 -29.772506 -3.07196 -49.060756 2.45657 15.508742 3.406587 7.776159 -23.252443 13.876693 -38.486964 -4.563995 0.507382 -8.276295 25.680719 69.589492 1.496017 142.889539 34.694386 168.02301 51.496887 -37.669116 67.68014 81.107517 -70.489404 89.917741 5.013157 45.060559 -8.740951 159.237071 68.427282 12.455753 109.79847 -30.696369 -79.586842 -153.585025 21.239172 -104.21459 -3.154995 32.874449 -106.604919 -1.588477 -3.391368 1.945721 51.482491 -23.194212 -74.681519 -47.358459 0.809071 -84.043868 93.107288 29.421605 178.302754
19.8843 84.6066 79.1797 -101.047492 49.68339 -107.19462 9.312787 47.273845 175.555419 -6.843898 8.919303 171.776339 -11.626223 35.785627 -103.441112 43.359743 36.853168 56.745916 -10.672625 -8.753734 78.664159 27.355638 -1.543441 -6.336039 -1.740467 21.612997 3.217165 30.455572 76.241237 32.649772 -157.137214 -56.914449 -101.375815 -11.003588 -5.249962 -2.647323 -164.281631 19.878744 91.455477 158.790502 -22.073361 90.613323 0.879563 -11.036665 1.557169 -7.172288 30.267172 14.958055 -21.019425 50.209071 15.538465 -174.480076 -31.766957 136.529425 12.821603 -1.174275 -5.265973 -5.674968 -26.376737 2.40159 -120.959634 -27.057596 -114.500708 -51.278417 -11.814696 -61.194198 168.031146 -19.895105 -154.238766 61.718475 -15.144586 63.424793 -39.573279 5.258715 165.275939 154.452695 40.950219 -129.963395 -51.588756 -40.542035 -13.644055 165.151872 -39.409536 -113.236808 160.559982 -8.016236 -123.982367 8.500048 -14.463897 29.254645 -7.243011 1.210242 -6.014944 166.202778 -83.464677 174.794422 -61.257891 87.242751 37.464154 134.908574 -81.488506 115.564211 122.356632 25.124678 162.9367 131.948737 36.379815 151.477555 -0.119857 9.821223 0.702635 -128.479376 -16.372518 -102.628722 173.118513 22.850458 75.411386 -165.32992 38.635373 -137.204716 -164.107573 77.809664 -12.634112 -136.404133 30.751376 118.236237 42.392493 -45.604782 91.60754 147.329277 6.065229 -166.322107
